<svg xmlns="http://www.w3.org/2000/svg" width="144" height="29" fill="none"><g clip-path="url(#a)"><path fill="#fff" d="M43.266 21.966V7.206h2.764v12.23h6.701v2.53h-9.465ZM58.7 22.261c-1.034 0-1.962-.21-2.786-.633a4.723 4.723 0 0 1-1.947-1.834c-.475-.801-.712-1.764-.712-2.89v-.337c0-1.124.237-2.087.712-2.888a4.724 4.724 0 0 1 1.947-1.835c.824-.422 1.752-.633 2.785-.633 1.034 0 1.962.211 2.786.633a4.727 4.727 0 0 1 1.947 1.835c.475.8.712 1.764.712 2.888v.338c0 1.125-.237 2.088-.712 2.889a4.726 4.726 0 0 1-1.947 1.834c-.824.422-1.752.633-2.785.633Zm0-2.362c.81 0 1.48-.26 2.01-.78.53-.534.796-1.293.796-2.277v-.211c0-.984-.266-1.736-.796-2.257-.517-.534-1.187-.8-2.01-.8-.81 0-1.48.266-2.01.8-.531.52-.797 1.273-.797 2.257v.21c0 .985.266 1.744.796 2.278.53.52 1.2.78 2.01.78ZM65.135 16.778v-.337c0-1.096.216-2.031.65-2.805.432-.787 1.004-1.384 1.716-1.792a4.63 4.63 0 0 1 2.367-.633c.949 0 1.668.17 2.157.506.488.338.844.69 1.068 1.055h.377v-1.265h2.597V23.82c0 .717-.21 1.287-.629 1.708-.419.436-.977.654-1.675.654H66.81v-2.32h6.031c.391 0 .587-.21.587-.632v-2.72h-.377a3.61 3.61 0 0 1-.587.696c-.25.225-.586.414-1.005.569-.419.155-.949.232-1.591.232-.852 0-1.64-.204-2.367-.611-.712-.422-1.284-1.02-1.717-1.793-.433-.787-.65-1.73-.65-2.826Zm5.487 2.91c.81 0 1.486-.26 2.03-.78.545-.52.818-1.251.818-2.193v-.21c0-.957-.273-1.688-.817-2.194-.53-.52-1.208-.78-2.031-.78-.81 0-1.487.26-2.032.78-.544.506-.817 1.237-.817 2.193v.211c0 .942.273 1.673.817 2.193.545.52 1.222.78 2.032.78ZM82.992 22.261c-1.034 0-1.962-.21-2.786-.633a4.725 4.725 0 0 1-1.947-1.834c-.475-.801-.712-1.764-.712-2.89v-.337c0-1.124.237-2.087.712-2.888a4.726 4.726 0 0 1 1.947-1.835c.824-.422 1.752-.633 2.786-.633 1.033 0 1.961.211 2.785.633a4.726 4.726 0 0 1 1.948 1.835c.474.8.712 1.764.712 2.888v.338c0 1.125-.238 2.088-.712 2.889a4.725 4.725 0 0 1-1.948 1.834c-.824.422-1.752.633-2.785.633Zm0-2.362c.81 0 1.48-.26 2.01-.78.53-.534.796-1.293.796-2.277v-.211c0-.984-.266-1.736-.796-2.257-.516-.534-1.187-.8-2.01-.8-.81 0-1.48.266-2.01.8-.531.52-.796 1.273-.796 2.257v.21c0 .985.265 1.744.795 2.278.53.52 1.2.78 2.01.78ZM89.93 21.966v-10.46h2.638v10.46H89.93Zm1.319-11.682c-.475 0-.88-.155-1.215-.464-.32-.31-.481-.717-.481-1.223 0-.506.16-.914.481-1.223.336-.31.74-.464 1.215-.464.489 0 .894.154 1.214.464.321.309.483.717.483 1.223 0 .506-.162.913-.483 1.223-.32.309-.725.464-1.214.464ZM94.55 26.183V11.507h2.597v1.265h.377c.236-.408.606-.766 1.11-1.076.502-.323 1.22-.485 2.157-.485.837 0 1.612.211 2.324.633.712.408 1.285 1.012 1.717 1.814.433.8.65 1.77.65 2.91v.337c0 1.139-.217 2.109-.65 2.91-.432.801-1.005 1.413-1.717 1.834a4.598 4.598 0 0 1-2.324.612c-.628 0-1.16-.077-1.592-.232-.419-.14-.76-.323-1.026-.548a3.974 3.974 0 0 1-.608-.717h-.377v5.42H94.55Zm5.444-6.242c.825 0 1.501-.26 2.032-.78.544-.534.817-1.307.817-2.32v-.21c0-1.012-.273-1.779-.817-2.299-.545-.534-1.222-.801-2.032-.801-.809 0-1.487.267-2.031.801-.545.52-.816 1.287-.816 2.299v.21c0 1.013.271 1.786.816 2.32.544.52 1.222.78 2.031.78ZM111.276 22.261c-1.354 0-2.464-.295-3.33-.886-.865-.59-1.388-1.434-1.57-2.53l2.429-.633c.098.492.258.879.482 1.16.237.281.523.485.859.612.348.112.725.168 1.13.168.615 0 1.069-.105 1.361-.316.293-.225.44-.499.44-.822a.812.812 0 0 0-.418-.738c-.28-.183-.727-.33-1.34-.443l-.587-.106c-.727-.14-1.389-.33-1.989-.569-.601-.253-1.083-.598-1.446-1.033-.362-.436-.544-.998-.544-1.687 0-1.04.377-1.835 1.131-2.383.753-.563 1.745-.844 2.974-.844 1.158 0 2.122.26 2.89.78.767.52 1.27 1.203 1.507 2.046l-2.45.76c-.111-.535-.342-.915-.691-1.14-.336-.224-.754-.337-1.256-.337-.503 0-.887.091-1.152.274a.802.802 0 0 0-.398.717c0 .338.139.59.418.76.279.154.657.274 1.132.358l.586.105c.782.14 1.486.33 2.115.57.642.225 1.144.555 1.508.99.376.422.565.999.565 1.73 0 1.096-.398 1.947-1.193 2.551-.782.59-1.836.886-3.163.886ZM120.96 22.134c-.81 0-1.522-.183-2.136-.548a3.886 3.886 0 0 1-1.404-1.56c-.334-.661-.502-1.42-.502-2.278v-6.242h2.639v6.031c0 .788.188 1.378.565 1.772.391.393.943.59 1.654.59.81 0 1.439-.267 1.885-.801.447-.549.671-1.308.671-2.278v-5.314h2.638v10.46h-2.597v-1.371h-.376c-.168.351-.483.696-.943 1.033-.46.338-1.159.506-2.094.506ZM128.964 21.966v-10.46h2.596v1.14h.377c.182-.352.483-.654.901-.908.419-.267.97-.4 1.654-.4.74 0 1.334.148 1.781.443.446.28.788.653 1.026 1.117h.377c.237-.45.572-.822 1.005-1.117.433-.296 1.047-.443 1.842-.443.643 0 1.222.14 1.739.422.53.267.95.681 1.256 1.244.322.548.482 1.244.482 2.087v6.875h-2.639V15.28c0-.576-.147-1.005-.439-1.286-.293-.295-.706-.443-1.236-.443-.6 0-1.068.197-1.403.59-.321.38-.481.928-.481 1.645v6.179h-2.639V15.28c0-.576-.147-1.005-.44-1.286-.294-.295-.705-.443-1.236-.443-.6 0-1.068.197-1.403.59-.321.38-.482.928-.482 1.645v6.179h-2.638Z"/><path fill="url(#b)" d="M34.903 14.058c0-3.728-1.47-7.304-4.09-9.94A13.913 13.913 0 0 0 20.943 0a13.913 13.913 0 0 0-9.873 4.118 14.108 14.108 0 0 0-4.089 9.94h4.363c1.446 0 2.574-1.22 3.103-2.574a7.034 7.034 0 0 1 1.56-2.396 6.956 6.956 0 0 1 4.936-2.059c1.851 0 3.627.74 4.936 2.059a7.054 7.054 0 0 1 2.044 4.97h6.981Z"/><path fill="#FBCF8E" d="M26.86 19.439a14.144 14.144 0 0 0 1.063-5.38h6.98c0 7.764-6.251 14.058-13.962 14.058-1.207 0-2.379-.154-3.496-.445A13.905 13.905 0 0 0 23.834 24a14.064 14.064 0 0 0 3.026-4.56Z"/><path fill="url(#c)" d="M0 14.058c0 1.846.361 3.674 1.063 5.38a14.065 14.065 0 0 0 3.026 4.56 13.956 13.956 0 0 0 4.53 3.048 13.878 13.878 0 0 0 10.685 0A13.955 13.955 0 0 0 23.834 24a14.065 14.065 0 0 0 3.026-4.56 14.144 14.144 0 0 0 1.063-5.38H23.56c-1.446 0-2.573 1.22-3.103 2.574l-.046.115a7.03 7.03 0 0 1-1.514 2.28 6.98 6.98 0 0 1-2.264 1.524 6.94 6.94 0 0 1-7.608-1.523 7.033 7.033 0 0 1-1.513-2.28 7.072 7.072 0 0 1-.531-2.69H0Z"/><path fill="#73E5E2" d="M.002 14.058C.002 6.294 6.252 0 13.962 0c1.208 0 2.38.154 3.497.444a13.938 13.938 0 0 0-6.39 3.674 14.108 14.108 0 0 0-4.089 9.94H.002Z"/></g><defs><linearGradient id="b" x1="34.903" x2="6.98" y1="7.029" y2="7.029" gradientUnits="userSpaceOnUse"><stop stop-color="#73E5E2"/><stop offset="1" stop-color="#394F87"/></linearGradient><linearGradient id="c" x1="0" x2="27.923" y1="21.087" y2="21.087" gradientUnits="userSpaceOnUse"><stop stop-color="#FBDC8E"/><stop offset="1" stop-color="#FB958E"/></linearGradient><clipPath id="a"><path fill="#fff" d="M0 0h144v29H0z"/></clipPath></defs></svg>