<svg width="661" height="796" viewBox="0 0 661 796" fill="none" xmlns="http://www.w3.org/2000/svg">
<rect x="118" width="375" height="659" fill="url(#paint0_linear_1501_448)"/>
<path fill-rule="evenodd" clip-rule="evenodd" d="M67 795.721C115.589 739.408 204.219 701.724 305.5 701.724C406.781 701.724 495.41 739.408 544 795.721L544 659L67 659L67 795.721Z" fill="url(#paint1_linear_1501_448)"/>
<rect x="402.298" y="246.172" width="89.0097" height="301.775" rx="44.5048" transform="rotate(-38.6688 402.298 246.172)" fill="url(#paint2_linear_1501_448)" fill-opacity="0.32"/>
<rect x="128.614" y="90.6147" width="89.0097" height="301.775" rx="44.5048" transform="rotate(-38.6688 128.614 90.6147)" fill="#7373FF" fill-opacity="0.32"/>
<rect x="242" y="428.615" width="89.0097" height="301.775" rx="44.5048" transform="rotate(-38.6688 242 428.615)" fill="#7373FF" fill-opacity="0.32"/>
<rect y="390.479" width="89.0097" height="301.775" rx="44.5048" transform="rotate(-38.6688 0 390.479)" fill="#7373FF" fill-opacity="0.32"/>
<defs>
<linearGradient id="paint0_linear_1501_448" x1="359.875" y1="558.796" x2="629.519" y2="482.503" gradientUnits="userSpaceOnUse">
<stop stop-color="#6B50FF"/>
<stop offset="1" stop-color="#A145FF"/>
</linearGradient>
<linearGradient id="paint1_linear_1501_448" x1="544" y1="608.5" x2="439.988" y2="606.447" gradientUnits="userSpaceOnUse">
<stop stop-color="#7E55FF"/>
<stop offset="1" stop-color="#6B50FF"/>
</linearGradient>
<linearGradient id="paint2_linear_1501_448" x1="446.803" y1="246.172" x2="462.277" y2="528.332" gradientUnits="userSpaceOnUse">
<stop offset="0.236111" stop-color="#7373FF"/>
<stop offset="1" stop-color="#7373FF" stop-opacity="0"/>
</linearGradient>
</defs>
</svg>
